# xmcd CD database file
#
# Track frame offsets:
#	150
#	12990
#	36169
#	54190
#	66703
#	77656
#	91396
#	104780
#	129111
#	140408
#	163088
#	179044
#	198409
#	210322
#	220053
#	236472
#	256059
#	269490
#
# Disc length: 3815 seconds
#
# Revision: 1
# Processed by: cddbd v1.5.2PL0 Copyright (c) Steve Scherf et al.
# Submitted via: CDex 1.51
#
DISCID=040ee512
DTITLE=Various Artist - The very best of blues CD 2
DYEAR=1900
DGENRE=Blues
TTITLE0=Charles Brown - Big Legged Woman
TTITLE1=Lightnin' Hopkins - Last Night
TTITLE2=Gatemouth Moore - Boggie Woogie Papa
TTITLE3=Memphis Slim - Four Walls
TTITLE4=John Lee Hooker - Big Fine Woman
TTITLE5=Leadbelly - The Bourgeoisie Blues
TTITLE6=John Lee Hooker - Trouble Blues
TTITLE7=Lightnin' Hopkins - Walk A Long Time
TTITLE8=John Lee Hooker - Boom Boom
TTITLE9=B.B. King - Everyday I Have The Blues
TTITLE10=Memphis Slim - Cow Cow Blues
TTITLE11=B.B. King - Sweet Sixteen
TTITLE12=Gatemouth Moore - Did You Ever Love Woman
TTITLE13=Memphis Slim - Big Bertah
TTITLE14=Jelly Roll Morton - Stratford Hunch
TTITLE15=Jelly Roll Morton - Shreveport Stomp
TTITLE16=Memphis Slim - True Love
TTITLE17=John Lee Hooker - Sunrise
EXTD=
EXTT0=
EXTT1=
EXTT2=
EXTT3=
EXTT4=
EXTT5=
EXTT6=
EXTT7=
EXTT8=
EXTT9=
EXTT10=
EXTT11=
EXTT12=
EXTT13=
EXTT14=
EXTT15=
EXTT16=
EXTT17=
PLAYORDER=
